<?xml version="1.0" encoding="UTF-8" standalone="no"?>
<!-- Created with Inkscape (http://www.inkscape.org/) -->

<svg
   xmlns:dc="http://purl.org/dc/elements/1.1/"
   xmlns:cc="http://creativecommons.org/ns#"
   xmlns:rdf="http://www.w3.org/1999/02/22-rdf-syntax-ns#"
   xmlns:svg="http://www.w3.org/2000/svg"
   xmlns="http://www.w3.org/2000/svg"
   xmlns:xlink="http://www.w3.org/1999/xlink"
   xmlns:sodipodi="http://sodipodi.sourceforge.net/DTD/sodipodi-0.dtd"
   xmlns:inkscape="http://www.inkscape.org/namespaces/inkscape"
   width="303"
   height="303"
   id="svg4905"
   version="1.1"
   inkscape:version="0.48.4 r9939"
   sodipodi:docname="New document 25">
  <defs
     id="defs4907">
    <linearGradient
       inkscape:collect="always"
       xlink:href="#linearGradient4293-5"
       id="linearGradient4882"
       gradientUnits="userSpaceOnUse"
       gradientTransform="translate(155.71433,575.71423)"
       x1="125.28572"
       y1="134.50504"
       x2="270.42859"
       y2="251.6479" />
    <linearGradient
       inkscape:collect="always"
       id="linearGradient4293-5">
      <stop
         style="stop-color:#ececec;stop-opacity:1;"
         offset="0"
         id="stop4295-6" />
      <stop
         style="stop-color:#ececec;stop-opacity:0;"
         offset="1"
         id="stop4297-8" />
    </linearGradient>
  </defs>
  <sodipodi:namedview
     id="base"
     pagecolor="#ffffff"
     bordercolor="#666666"
     borderopacity="1.0"
     inkscape:pageopacity="0.0"
     inkscape:pageshadow="2"
     inkscape:zoom="0.35"
     inkscape:cx="151.50897"
     inkscape:cy="151.495"
     inkscape:document-units="px"
     inkscape:current-layer="layer1"
     showgrid="false"
     fit-margin-top="0"
     fit-margin-left="0"
     fit-margin-right="0"
     fit-margin-bottom="0"
     inkscape:window-width="472"
     inkscape:window-height="383"
     inkscape:window-x="65"
     inkscape:window-y="669"
     inkscape:window-maximized="0" />
  <metadata
     id="metadata4910">
    <rdf:RDF>
      <cc:Work
         rdf:about="">
        <dc:format>image/svg+xml</dc:format>
        <dc:type
           rdf:resource="http://purl.org/dc/dcmitype/StillImage" />
        <dc:title></dc:title>
      </cc:Work>
    </rdf:RDF>
  </metadata>
  <g
     inkscape:label="Layer 1"
     inkscape:groupmode="layer"
     id="layer1"
     transform="translate(-223.49103,-380.85718)">
    <g
       id="g4874"
       transform="translate(51.785718,-213.92855)">
      <g
         transform="translate(-5.3571905,-3.2142683)"
         id="g4852">
        <rect
           style="fill:#ffffff;fill-opacity:0.8851064;stroke:#000000;stroke-width:3;stroke-linecap:round;stroke-linejoin:round;stroke-miterlimit:4;stroke-opacity:0.42465754;stroke-dasharray:none"
           id="rect4317-8"
           width="300"
           height="300"
           x="178.57147"
           y="599.505"
           rx="35.543098"
           ry="36.070835" />
        <rect
           ry="34.965412"
           rx="34.453846"
           y="604.10187"
           x="183.16837"
           height="290.80621"
           width="290.80621"
           id="rect4319-1"
           style="fill:url(#linearGradient4882);fill-opacity:1;stroke:#000000;stroke-width:2.90806222;stroke-linecap:round;stroke-linejoin:round;stroke-miterlimit:4;stroke-opacity:0.34703196;stroke-dasharray:none" />
      </g>
      <path
         transform="translate(314.28571,-7.1428572)"
         d="m 114.28571,753.43359 c 0,58.18715 -47.169997,105.35714 -105.3571383,105.35714 -58.1871417,0 -105.3571397,-47.16999 -105.3571397,-105.35714 0,-58.18714 47.169998,-105.35714 105.3571397,-105.35714 58.1871413,0 105.3571383,47.17 105.3571383,105.35714 z"
         sodipodi:ry="105.35714"
         sodipodi:rx="105.35714"
         sodipodi:cy="753.43359"
         sodipodi:cx="8.9285717"
         id="path4856"
         style="fill:#4d4d4d;fill-opacity:0.8851064;stroke:#ffffff;stroke-width:7.5999999;stroke-linecap:round;stroke-linejoin:round;stroke-miterlimit:4;stroke-opacity:0.58447487;stroke-dasharray:none"
         sodipodi:type="arc" />
      <path
         id="rect4862"
         d="m 269.5625,696.65625 0,11.5625 -3.84375,0 c -5.54,0 -10,4.46 -10,10 l 0,59.90625 c 0,5.54 4.46,10 10,10 l 116.4375,0 c 5.54,0 10,-4.46 10,-10 l 0,-59.90625 c 0,-5.54 -4.46,-10 -10,-10 l -86.875,0 0,-11.5625 -25.71875,0 z m 54.375,21.15625 c 16.76579,0 30.34375,13.57796 30.34375,30.34375 0,16.76579 -13.57796,30.375 -30.34375,30.375 -16.76579,0 -30.375,-13.60921 -30.375,-30.375 0,-16.76579 13.60921,-30.34375 30.375,-30.34375 z"
         style="fill:#ffffff;fill-opacity:0.88627451;stroke:none"
         inkscape:connector-curvature="0" />
      <path
         transform="translate(-19.633942,-17.047424)"
         d="m 365.00001,765.2193 c 0,11.83467 -9.59389,21.42857 -21.42857,21.42857 -11.83467,0 -21.42857,-9.5939 -21.42857,-21.42857 0,-11.83467 9.5939,-21.42857 21.42857,-21.42857 11.83468,0 21.42857,9.5939 21.42857,21.42857 z"
         sodipodi:ry="21.428572"
         sodipodi:rx="21.428572"
         sodipodi:cy="765.2193"
         sodipodi:cx="343.57144"
         id="path4867"
         style="fill:#ffffff;fill-opacity:0.88627451;stroke:none"
         sodipodi:type="arc" />
    </g>
  </g>
</svg>
