<?xml version="1.0" encoding="UTF-8" standalone="no"?>
<!-- Created with Inkscape (http://www.inkscape.org/) -->

<svg
   xmlns:dc="http://purl.org/dc/elements/1.1/"
   xmlns:cc="http://creativecommons.org/ns#"
   xmlns:rdf="http://www.w3.org/1999/02/22-rdf-syntax-ns#"
   xmlns:svg="http://www.w3.org/2000/svg"
   xmlns="http://www.w3.org/2000/svg"
   xmlns:sodipodi="http://sodipodi.sourceforge.net/DTD/sodipodi-0.dtd"
   xmlns:inkscape="http://www.inkscape.org/namespaces/inkscape"
   width="477.28125"
   height="520.9375"
   id="svg2"
   version="1.1"
   inkscape:version="0.48.4 r9939"
   sodipodi:docname="icon.svg">
  <defs
     id="defs4" />
  <sodipodi:namedview
     id="base"
     pagecolor="#ffffff"
     bordercolor="#666666"
     borderopacity="1.0"
     inkscape:pageopacity="0.0"
     inkscape:pageshadow="2"
     inkscape:zoom="0.7"
     inkscape:cx="274.11479"
     inkscape:cy="60.340835"
     inkscape:document-units="px"
     inkscape:current-layer="layer1"
     showgrid="false"
     inkscape:window-width="1855"
     inkscape:window-height="1056"
     inkscape:window-x="65"
     inkscape:window-y="24"
     inkscape:window-maximized="1"
     fit-margin-top="0"
     fit-margin-left="0"
     fit-margin-right="0"
     fit-margin-bottom="0" />
  <metadata
     id="metadata7">
    <rdf:RDF>
      <cc:Work
         rdf:about="">
        <dc:format>image/svg+xml</dc:format>
        <dc:type
           rdf:resource="http://purl.org/dc/dcmitype/StillImage" />
        <dc:title></dc:title>
      </cc:Work>
    </rdf:RDF>
  </metadata>
  <g
     inkscape:label="Layer 1"
     inkscape:groupmode="layer"
     id="layer1"
     transform="translate(-97.9375,-14.84375)">
    <path
       style="fill:#999999;fill-opacity:0.88627451;stroke:none"
       d="M 336.5625,14.84375 97.9375,253.5 l 22.21875,0 0,282.28125 148.5625,0 0,-234.84375 135.71875,0 0,234.84375 148.5625,0 0,-282.28125 22.21875,0 L 336.5625,14.84375 z m -176.84375,284.09375 80,0 0,137.125 -80,0 0,-137.125 z m 280,0 80,0 0,137.125 -80,0 0,-137.125 z"
       id="rect2985"
       inkscape:connector-curvature="0" />
    <path
       style="fill:#ffffff;fill-opacity:0.88627451;stroke:none"
       d="m 366.86364,132.22768 0,11.97346 c -1.0021,0.16427 -1.99456,0.35481 -2.97772,0.5723 l -4.47105,-11.10608 -16.68594,6.71551 4.4621,11.10608 c -1.18967,0.72441 -2.34122,1.4974 -3.46953,2.30706 l -8.47711,-8.47711 -12.71565,12.7246 8.46816,8.46817 c -0.58993,0.82188 -1.16292,1.65795 -1.70794,2.51272 l -11.01666,-4.6946 -7.04637,16.54288 11.00772,4.6946 c -0.32744,1.34616 -0.60494,2.7127 -0.83162,4.09547 l -11.97346,0 0,17.98255 11.97346,0 c 0.16475,1.00499 0.35404,2.00072 0.5723,2.98666 l -11.09714,4.46211 6.70657,16.68594 11.10608,-4.4621 c 0.72567,1.19174 1.49585,2.34831 2.30706,3.47847 l -8.46816,8.46817 12.71565,12.71564 8.46817,-8.46815 c 0.82188,0.58995 1.65795,1.16296 2.51273,1.70793 l -4.6946,11.01665 16.54287,7.04637 4.6946,-11.0077 c 1.34616,0.32744 2.7127,0.60489 4.09548,0.83163 l 0,11.97345 17.98255,0 0,-11.97345 c 1.00498,-0.16482 2.00072,-0.35411 2.98665,-0.57229 l 4.46211,11.09712 16.69489,-6.70657 -4.47105,-11.10608 c 1.19175,-0.72567 2.34831,-1.49583 3.47847,-2.30706 l 8.46817,8.46815 12.7246,-12.71564 -8.47711,-8.47711 c 0.58842,-0.82 1.16422,-1.65105 1.70794,-2.50379 l 11.01666,4.6946 7.04637,-16.54287 -11.00772,-4.6946 c 0.32744,-1.34616 0.60495,-2.7127 0.83162,-4.09548 l 11.97346,0 0,-17.98255 -11.97346,0 c -0.16475,-1.00498 -0.35404,-2.00072 -0.5723,-2.98665 l 11.10608,-4.46211 -6.71551,-16.69489 -11.10608,4.47105 c -0.72567,-1.19175 -1.49585,-2.34831 -2.30706,-3.47847 l 8.47711,-8.46817 -12.7246,-12.7246 -8.46817,8.47711 c -0.82188,-0.58994 -1.65795,-1.16292 -2.51272,-1.70794 l 4.6946,-11.01666 -16.54288,-7.04637 -4.6946,11.00772 c -1.34616,-0.32744 -2.7127,-0.60495 -4.09547,-0.83162 l 0,-11.97346 -17.98255,0 z m 8.9868,21.04969 c 25.05977,0 45.38112,20.32135 45.38112,45.38112 0,25.05977 -20.32135,45.37218 -45.38112,45.37218 -25.05977,0 -45.37218,-20.31241 -45.37218,-45.37218 0,-25.05977 20.31241,-45.38112 45.37218,-45.38112 z m 0,7.35934 c -20.99603,0 -38.01284,17.02575 -38.01284,38.02178 0,20.99603 17.01681,38.01284 38.01284,38.01284 20.99603,0 38.02178,-17.01681 38.02178,-38.01284 0,-20.99603 -17.02575,-38.02178 -38.02178,-38.02178 z m 0.009,22.07803 c 8.80478,0 15.93481,7.13896 15.93481,15.94375 0,8.80479 -7.13003,15.93481 -15.93481,15.93481 -8.80479,0 -15.94375,-7.13002 -15.94375,-15.93481 0,-8.80479 7.13896,-15.94375 15.94375,-15.94375 z"
       id="rect2999"
       inkscape:connector-curvature="0" />
    <path
       inkscape:connector-curvature="0"
       id="path3024"
       d="m 274.41644,199.08482 0,5.14965 c -0.43099,0.0707 -0.85783,0.1526 -1.28068,0.24614 l -1.92295,-4.7766 -7.17643,2.88826 1.9191,4.7766 c -0.51166,0.31156 -1.00693,0.64401 -1.4922,0.99224 l -3.64591,-3.64591 -5.46885,5.4727 3.64205,3.64207 c -0.25372,0.35348 -0.50015,0.71306 -0.73456,1.08069 l -4.73814,-2.0191 -3.03056,7.11491 4.73429,2.01909 c -0.14083,0.57897 -0.26018,1.1667 -0.35767,1.76141 l -5.14964,0 0,7.73409 5.14964,0 c 0.0709,0.43223 0.15227,0.86048 0.24614,1.28453 l -4.77275,1.9191 2.88442,7.17643 4.77659,-1.9191 c 0.31211,0.51255 0.64335,1.00998 0.99224,1.49605 l -3.64205,3.64206 5.46885,5.46885 3.64206,-3.64205 c 0.35348,0.25373 0.71307,0.50017 1.0807,0.73456 l -2.0191,4.73813 7.1149,3.03056 2.01909,-4.73428 c 0.57897,0.14083 1.1667,0.26015 1.76142,0.35767 l 0,5.14964 7.73409,0 0,-5.14964 c 0.43223,-0.0709 0.86048,-0.1523 1.28452,-0.24613 l 1.9191,4.77274 7.18028,-2.88442 -1.92295,-4.77659 c 0.51256,-0.31211 1.00999,-0.64334 1.49605,-0.99224 l 3.64207,3.64205 5.4727,-5.46885 -3.64591,-3.64591 c 0.25307,-0.35267 0.50072,-0.71009 0.73457,-1.07685 l 4.73813,2.0191 3.03057,-7.1149 -4.7343,-2.01909 c 0.14083,-0.57897 0.26019,-1.1667 0.35767,-1.76142 l 5.14965,0 0,-7.73409 -5.14965,0 c -0.0709,-0.43223 -0.15226,-0.86048 -0.24614,-1.28452 l 4.7766,-1.9191 -2.88826,-7.18028 -4.7766,1.92295 c -0.3121,-0.51256 -0.64335,-1.00999 -0.99224,-1.49605 l 3.64591,-3.64207 -5.4727,-5.4727 -3.64207,3.64591 c -0.35348,-0.25373 -0.71306,-0.50016 -1.08069,-0.73457 l 2.0191,-4.73813 -7.11491,-3.03057 -2.01909,4.7343 c -0.57897,-0.14083 -1.1667,-0.26019 -1.76141,-0.35767 l 0,-5.14965 -7.73409,0 z m 3.86512,9.05323 c 10.77792,0 19.51789,8.73997 19.51789,19.51789 0,10.77792 -8.73997,19.51405 -19.51789,19.51405 -10.77792,0 -19.51405,-8.73613 -19.51405,-19.51405 0,-10.77792 8.73613,-19.51789 19.51405,-19.51789 z m 0,3.16516 c -9.03015,0 -16.34888,7.32258 -16.34888,16.35273 0,9.03015 7.31873,16.34888 16.34888,16.34888 9.03015,0 16.35273,-7.31873 16.35273,-16.34888 0,-9.03015 -7.32258,-16.35273 -16.35273,-16.35273 z m 0.004,9.49551 c 3.78683,0 6.85338,3.07038 6.85338,6.85722 0,3.78684 -3.06655,6.85338 -6.85338,6.85338 -3.78684,0 -6.85722,-3.06654 -6.85722,-6.85338 0,-3.78684 3.07038,-6.85722 6.85722,-6.85722 z"
       style="fill:#ffffff;fill-opacity:0.88627451;stroke:none" />
    <path
       inkscape:connector-curvature="0"
       id="path3026"
       d="m 290.48863,159.94197 0,2.96088 c -0.24781,0.0406 -0.49323,0.0877 -0.73635,0.14152 l -1.10563,-2.74639 -4.12621,1.66066 1.10342,2.74638 c -0.29419,0.17914 -0.57895,0.37029 -0.85797,0.57051 l -2.09628,-2.09628 -3.1444,3.14662 2.09406,2.09407 c -0.14588,0.20324 -0.28758,0.40999 -0.42235,0.62136 l -2.72427,-1.16091 -1.74248,4.09083 2.72206,1.16091 c -0.081,0.33289 -0.14959,0.67082 -0.20564,1.01276 l -2.96088,0 0,4.44684 2.96088,0 c 0.0407,0.24852 0.0875,0.49475 0.14152,0.73856 l -2.74418,1.10342 1.65845,4.12621 2.74638,-1.10342 c 0.17945,0.2947 0.36991,0.58071 0.57051,0.86018 l -2.09406,2.09407 3.1444,3.1444 2.09407,-2.09406 c 0.20324,0.14589 0.40999,0.28759 0.62136,0.42235 l -1.16091,2.72427 4.09083,1.74247 1.16091,-2.72205 c 0.33289,0.081 0.67082,0.14958 1.01276,0.20565 l 0,2.96087 4.44684,0 0,-2.96087 c 0.24852,-0.0408 0.49475,-0.0876 0.73856,-0.14152 l 1.10342,2.74417 4.12842,-1.65845 -1.10563,-2.74638 c 0.29471,-0.17945 0.58071,-0.3699 0.86018,-0.57051 l 2.09407,2.09406 3.14662,-3.1444 -2.09628,-2.09628 c 0.14551,-0.20278 0.2879,-0.40828 0.42235,-0.61915 l 2.72427,1.16091 1.74248,-4.09083 -2.72206,-1.16091 c 0.081,-0.33289 0.14959,-0.67082 0.20564,-1.01276 l 2.96088,0 0,-4.44684 -2.96088,0 c -0.0407,-0.24852 -0.0875,-0.49475 -0.14152,-0.73856 l 2.74639,-1.10342 -1.66066,-4.12842 -2.74638,1.10563 c -0.17945,-0.29471 -0.36991,-0.58071 -0.57051,-0.86018 l 2.09628,-2.09407 -3.14662,-3.14662 -2.09407,2.09628 c -0.20324,-0.14589 -0.40999,-0.28758 -0.62136,-0.42235 l 1.16091,-2.72427 -4.09083,-1.74248 -1.16091,2.72206 c -0.33289,-0.081 -0.67082,-0.14959 -1.01276,-0.20564 l 0,-2.96088 -4.44684,0 z m 2.22231,5.20531 c 6.19695,0 11.22214,5.02519 11.22214,11.22214 0,6.19694 -5.02519,11.21992 -11.22214,11.21992 -6.19694,0 -11.21992,-5.02298 -11.21992,-11.21992 0,-6.19695 5.02298,-11.22214 11.21992,-11.22214 z m 0,1.81986 c -5.19203,0 -9.40006,4.21024 -9.40006,9.40228 0,5.19203 4.20803,9.40006 9.40006,9.40006 5.19204,0 9.40228,-4.20803 9.40228,-9.40006 0,-5.19204 -4.21024,-9.40228 -9.40228,-9.40228 z m 0.002,5.4596 c 2.1773,0 3.94046,1.76537 3.94046,3.94268 0,2.1773 -1.76316,3.94046 -3.94046,3.94046 -2.17731,0 -3.94267,-1.76316 -3.94267,-3.94046 0,-2.17731 1.76536,-3.94268 3.94267,-3.94268 z"
       style="fill:#ffffff;fill-opacity:0.88627451;stroke:none" />
    <path
       inkscape:connector-curvature="0"
       style="fill:#999999;fill-opacity:0.88627451;stroke:none"
       d="m 294.72598,318.05638 0,9.14119 -3.03883,0 c -4.37987,0 -7.9059,3.52603 -7.9059,7.9059 l 0,47.36126 c 0,4.37986 3.52603,7.90589 7.9059,7.90589 l 92.05428,0 c 4.37986,0 7.90589,-3.52603 7.90589,-7.90589 l 0,-47.36126 c 0,-4.37987 -3.52603,-7.9059 -7.90589,-7.9059 l -68.68248,0 0,-9.14119 -20.33297,0 z m 42.98831,16.72591 c 13.25486,0 23.98945,10.7346 23.98945,23.98946 0,13.25486 -10.73459,24.01416 -23.98945,24.01416 -13.25486,0 -24.01416,-10.7593 -24.01416,-24.01416 0,-13.25486 10.7593,-23.98946 24.01416,-23.98946 z"
       id="rect4862" />
    <path
       transform="matrix(0.45687736,0,0,0.45687736,333.77788,117.42116)"
       d="m 114.28571,753.43359 c 0,58.18715 -47.169997,105.35714 -105.3571383,105.35714 -58.1871417,0 -105.3571397,-47.16999 -105.3571397,-105.35714 0,-58.18714 47.169998,-105.35714 105.3571397,-105.35714 58.1871413,0 105.3571383,47.17 105.3571383,105.35714 z"
       sodipodi:ry="105.35714"
       sodipodi:rx="105.35714"
       sodipodi:cy="753.43359"
       sodipodi:cx="8.9285717"
       id="path5059"
       style="fill:#808080;fill-opacity:0.8851064;stroke:#ffffff;stroke-width:7.5999999;stroke-linecap:round;stroke-linejoin:round;stroke-miterlimit:4;stroke-opacity:0.58447487;stroke-dasharray:none"
       sodipodi:type="arc" />
    <path
       style="fill:#ffffff;fill-opacity:0.88627451;stroke:none"
       d="m 337.85714,435.83448 c -10.86461,0 -19.67429,8.80968 -19.67429,19.67428 0,6.16309 2.83113,11.66985 7.26721,15.27684 l 24.79987,0 c 4.43609,-3.60699 7.28149,-9.11375 7.28149,-15.27684 0,-10.8646 -8.80968,-19.67428 -19.67428,-19.67428 z"
       id="path5142"
       inkscape:connector-curvature="0" />
    <path
       style="fill:#808080;stroke:#ffffff;stroke-width:3.97000313;stroke-linecap:round;stroke-linejoin:miter;stroke-miterlimit:4;stroke-opacity:0.88627451;stroke-dasharray:none"
       d="m 326.76317,473.50069 22.18793,0"
       id="path5148"
       inkscape:connector-curvature="0" />
    <path
       inkscape:connector-curvature="0"
       id="path5153"
       d="m 326.76317,478.06946 22.18793,0"
       style="fill:#808080;stroke:#ffffff;stroke-width:3.97000313;stroke-linecap:round;stroke-linejoin:miter;stroke-miterlimit:4;stroke-opacity:0.88627451;stroke-dasharray:none" />
    <path
       style="fill:#808080;stroke:#ffffff;stroke-width:3.97000313;stroke-linecap:round;stroke-linejoin:miter;stroke-miterlimit:4;stroke-opacity:0.88627451;stroke-dasharray:none"
       d="m 326.76317,482.63823 22.18793,0"
       id="path5155"
       inkscape:connector-curvature="0" />
    <path
       inkscape:connector-curvature="0"
       id="path5157"
       d="m 331.59948,486.34166 12.51531,0"
       style="fill:#808080;stroke:#ffffff;stroke-width:2.23931861;stroke-linecap:round;stroke-linejoin:miter;stroke-miterlimit:4;stroke-opacity:0.88627451;stroke-dasharray:none" />
    <path
       style="fill:#ffffff;stroke:#4d4d4d;stroke-width:2.77177690999999982;stroke-linecap:butt;stroke-linejoin:miter;stroke-miterlimit:4;stroke-opacity:0.88627451000000002;stroke-dasharray:none"
       d="m 342.6134,466.86675 c 0.0442,-0.39773 5.38269,-21.22141 5.38269,-21.22141 l -4.76399,6.2334 -3.0935,-5.25895 -2.27373,5.83125 -2.27372,-5.83125 -3.0935,5.25895 -4.77946,-6.2334 c 0,0 5.35396,20.82368 5.39816,21.22141"
       id="path5173"
       inkscape:connector-curvature="0"
       sodipodi:nodetypes="ccccccccc" />
  </g>
</svg>
